<?xml version="1.0" encoding="UTF-8"?>
<!DOCTYPE svg PUBLIC "-//W3C//DTD SVG 1.1//EN" "http://www.w3.org/Graphics/SVG/1.1/DTD/svg11.dtd">
<!-- Creator: CorelDRAW 2019 (64 Bit) -->
<svg xmlns="http://www.w3.org/2000/svg" xml:space="preserve" width="210mm" height="297mm" version="1.1" style="shape-rendering:geometricPrecision; text-rendering:geometricPrecision; image-rendering:optimizeQuality; fill-rule:evenodd; clip-rule:evenodd"
viewBox="0 0 21000 29700"
 xmlns:xlink="http://www.w3.org/1999/xlink">
 <defs>
  <style type="text/css">
   <![CDATA[
    .str1 {stroke:#010101;stroke-width:20;stroke-miterlimit:22.9256}
    .str6 {stroke:#5947A9;stroke-width:20;stroke-miterlimit:22.9256}
    .str5 {stroke:#5EB9CF;stroke-width:20;stroke-miterlimit:22.9256}
    .str0 {stroke:#6AD1DD;stroke-width:20;stroke-miterlimit:22.9256}
    .str4 {stroke:#735DC4;stroke-width:20;stroke-miterlimit:22.9256}
    .str3 {stroke:#B8E5E7;stroke-width:20;stroke-miterlimit:22.9256}
    .str2 {stroke:#CAEEEE;stroke-width:20;stroke-miterlimit:22.9256}
    .fil0 {fill:none}
    .fil6 {fill:#010101}
    .fil4 {fill:#040404}
    .fil18 {fill:#070607}
    .fil19 {fill:#392E64}
    .fil17 {fill:#453476}
    .fil20 {fill:#5947A9}
    .fil10 {fill:#5EB9CF}
    .fil11 {fill:#5EB9CF}
    .fil7 {fill:#66BDD2}
    .fil3 {fill:#6AD1DD}
    .fil1 {fill:#6AD1DD}
    .fil2 {fill:#6DD2DE}
    .fil15 {fill:#735DC4}
    .fil9 {fill:#735DC4}
    .fil13 {fill:#B8E5E7}
    .fil8 {fill:#B8E5E7}
    .fil16 {fill:#CAEEEE}
    .fil5 {fill:#CAEEEE}
    .fil12 {fill:#CAEEF1}
    .fil14 {fill:#F5F7F7}
   ]]>
  </style>
 </defs>
 <g id="Camada_x0020_1">
  <metadata id="CorelCorpID_0Corel-Layer"/>
  <g id="_2171223661808">
   <rect class="fil0" x="-7.13" y="4350.53" width="21000" height="21000"/>
   <path class="fil1 str0" d="M12398.7 7879.15c106.52,-304.34 289.12,-669.54 593.46,-715.2 410.86,471.73 410.86,2236.91 365.21,2982.54 -228.25,-182.6 -395.64,-426.08 -623.9,-623.9l-776.06 -441.29c91.3,-395.64 243.47,-897.81 441.29,-1202.15zm-60.87 -821.71c-197.82,228.25 -928.24,1308.66 -943.45,1673.87 76.08,152.17 471.72,471.72 639.11,593.46 15.22,0 30.44,15.22 30.44,15.22 45.65,30.43 76.08,60.87 121.73,121.73 76.09,91.31 121.74,152.17 121.74,258.69 304.34,-121.73 167.39,-15.21 228.25,15.22 45.65,258.69 30.44,456.51 -45.65,684.77 197.82,-60.87 152.17,60.86 182.61,-228.26l106.52 319.56c15.21,-30.44 30.43,-45.65 30.43,-60.87 15.22,-15.22 15.22,-30.43 30.43,-45.65l45.66 -152.17c30.43,76.08 30.43,-76.09 30.43,152.17 0,15.22 -30.43,136.95 -30.43,152.17l167.38 -91.3c136.96,-106.52 -60.87,15.21 152.17,-121.74 -30.43,121.74 -60.87,197.82 0,273.91 0,-228.26 -15.21,-197.82 136.96,-334.78 106.51,-121.73 167.38,-152.17 334.77,-121.73 60.87,228.25 45.65,349.99 -76.09,486.94 0,0 -15.21,15.22 -15.21,15.22l-121.74 121.73c-45.65,-91.3 -30.43,-60.86 -60.87,-182.6 0,0 15.22,-30.43 15.22,-45.65 -136.95,289.12 106.52,15.22 -106.52,410.86l0 -304.34c-15.22,15.22 -30.43,30.43 -60.87,30.43 -15.21,15.22 -30.43,30.44 -45.65,45.65 -15.21,15.22 -30.43,15.22 -45.65,30.44 -365.21,273.9 197.82,-76.09 -152.17,106.52 76.09,-304.34 121.74,-410.86 -60.87,-106.52 -121.73,-152.17 -76.08,167.38 -106.52,-258.69l-91.3 136.95c-152.17,197.82 167.39,-76.08 -91.3,60.87 76.08,-365.21 -15.22,-228.26 -60.87,-258.69l-76.08 -76.08c-289.13,152.17 -152.17,121.73 -243.48,76.08 15.22,-15.22 15.22,-30.43 30.44,-30.43 0,-15.22 15.22,-30.44 15.22,-45.65 45.65,-91.31 76.08,-136.96 45.65,-273.91 30.43,60.87 91.3,-91.3 15.21,106.52 -60.86,136.95 30.44,15.21 -121.73,91.3 -15.22,-15.22 -228.26,76.09 -60.87,-228.26 -91.3,182.61 -182.6,273.91 -380.43,289.13 76.09,-213.04 319.56,-486.95 334.78,-532.6 -30.44,182.61 0,30.44 -45.65,152.17 -243.48,-197.82 -121.74,30.44 -152.17,-304.34 -45.65,213.04 30.43,-15.21 -45.65,106.52 -45.66,91.3 45.65,45.65 -334.78,258.69 76.09,-380.42 60.87,-136.95 228.26,-441.29 -136.96,121.73 -45.65,-30.44 -121.74,213.04 -182.6,-136.96 -45.65,-15.22 -136.95,-182.61l-30.44 -106.52c-15.21,152.17 -121.73,182.61 -258.69,304.34 -167.38,-197.82 15.22,-213.04 -106.52,-152.17l45.66 304.34c-15.22,-15.21 -30.44,-30.43 -45.66,-30.43 -15.21,0 -45.65,-15.22 -45.65,-30.44l-106.52 -30.43c0,0 -30.43,30.43 -45.65,91.3 -15.21,-15.21 -30.43,-45.65 -45.65,-60.87 -15.21,0 -30.43,-15.21 -30.43,-30.43 -152.17,-167.39 -213.04,-197.82 -456.51,-91.3 0,0 -15.22,-15.22 -30.44,-30.44 0,0 -15.21,-15.21 -30.43,-30.43l-182.6 -182.6c0,-15.22 -15.22,-15.22 -15.22,-30.44 -76.09,167.39 -15.22,121.74 15.22,243.47 -197.83,45.66 -15.22,-30.43 -228.26,121.74 0,-15.22 15.22,-30.43 15.22,-30.43l-410.86 228.25c182.6,60.87 -30.44,-121.73 258.69,121.74 -106.52,0 -426.08,15.21 -441.3,91.3l-60.86 -197.82c0,0 15.21,0 15.21,0 -213.04,30.43 -91.3,0 -182.6,76.08l-91.3 106.52c60.86,-289.12 121.73,-91.3 91.3,-410.86 -167.39,106.52 -136.95,15.22 -243.47,-228.25 -182.61,15.22 -197.83,91.3 -289.13,197.82 -167.38,213.04 -136.95,380.42 -365.21,532.6 -136.95,106.51 -152.17,106.51 -289.12,45.65 -30.43,121.73 15.22,45.65 -30.43,152.17 -60.87,136.95 -60.87,91.3 -60.87,106.52 0,0 -15.22,15.21 -30.44,15.21 -60.86,76.09 -106.51,76.09 -136.95,182.61 167.39,45.65 -91.3,121.73 228.26,-167.39 0,228.25 15.21,136.95 -60.87,365.21 486.94,-152.17 -30.44,-136.96 304.34,273.9 45.65,-91.3 30.43,-228.25 106.52,-273.9l76.08 152.17c76.09,-213.04 289.13,-273.91 486.95,-213.04 213.04,76.08 91.3,45.65 167.39,91.3 -15.22,319.56 -91.31,197.82 -258.69,243.47l-152.17 76.09c-15.22,-15.22 -45.66,15.22 -60.87,30.43 319.56,-30.43 471.73,-45.65 684.76,152.17 167.39,152.17 319.56,319.56 106.52,502.17 -197.82,-60.87 -106.52,-76.09 -243.47,-258.69 -76.08,-106.52 -182.6,-167.39 -334.77,-182.61 -517.38,0 -228.26,456.51 -639.12,471.73l-15.22 -289.12c-182.6,0 -136.95,0 -76.08,-30.44 -45.65,30.44 -197.82,91.3 -197.82,319.56 15.21,121.74 30.43,121.74 121.73,258.69 547.82,60.87 943.46,106.52 1430.4,243.47l136.96 15.22c167.38,-456.51 334.77,-730.42 791.28,-852.16 639.12,-213.03 1019.54,441.3 1278.23,639.12 213.04,-60.87 213.04,-136.95 426.08,-136.95l136.95 -152.17c-258.69,-76.09 60.87,-136.96 -502.16,-213.04 -91.3,-15.22 -60.87,0 -121.74,-30.44 -243.47,-349.99 197.82,-745.63 532.6,-776.06 441.29,-45.66 791.28,273.9 669.55,639.11 0,15.22 -15.22,76.09 15.21,213.04 1156.5,-213.04 1567.36,60.87 1993.43,60.87 502.17,0 152.17,76.08 273.91,-121.74 -182.6,-60.87 -486.94,-380.42 -608.68,-608.68l-15.22 0c-654.33,-380.43 -578.24,-867.37 -563.03,-1232.58 45.65,-882.59 -91.3,-2404.29 -456.51,-3195.57 -334.77,-699.99 -821.72,-30.44 -1019.54,167.39z"/>
   <path class="fil2" d="M7453.17 8396.53c152.17,182.61 593.46,806.5 699.98,1141.28 -304.34,91.3 -456.51,410.86 -730.41,593.46 -60.87,213.04 -334.78,563.03 -426.08,654.33 -182.61,-791.28 -471.73,-2206.46 -258.69,-2967.31 410.86,15.21 547.81,289.12 715.2,578.24zm-852.15 3241.23c-304.34,578.24 -563.03,882.58 -882.59,1323.88 791.28,-106.52 1369.53,-578.25 2221.68,-563.03 -91.3,-136.95 -106.52,-136.95 -121.73,-258.69 0,-228.26 152.17,-289.12 197.82,-319.56 -60.87,30.44 -106.52,30.44 76.08,30.44 30.44,-15.22 106.52,-167.39 182.61,-243.48 76.08,-60.86 167.39,-91.3 258.69,-152.17 15.21,-15.21 45.65,-45.65 60.87,-30.43l152.17 -76.09c167.38,-45.65 243.47,76.09 258.69,-243.47 -76.09,-45.65 45.65,-15.22 -167.39,-91.3 -197.82,-60.87 -410.86,0 -486.95,213.04l-76.08 -152.17c-76.09,45.65 -60.87,182.6 -106.52,273.9 -334.78,-410.86 182.6,-426.07 -304.34,-273.9 76.08,-228.26 60.87,-136.96 60.87,-365.21 -319.56,289.12 -60.87,213.04 -228.26,167.39 30.44,-106.52 76.09,-106.52 136.95,-182.61 15.22,0 30.44,-15.21 30.44,-15.21 0,-15.22 0,30.43 60.87,-106.52 45.65,-106.52 0,-30.44 30.43,-152.17 136.95,60.86 152.17,60.86 289.12,-45.65 228.26,-152.18 197.83,-319.56 365.21,-532.6 91.3,-106.52 106.52,-182.6 289.13,-197.82 106.52,243.47 76.08,334.77 243.47,228.25 30.43,319.56 -30.44,121.74 -91.3,410.86l91.3 -106.52c91.3,-76.08 -30.44,-45.65 182.6,-76.08 0,0 -15.21,0 -15.21,0l60.86 197.82c15.22,-76.09 334.78,-91.3 441.3,-91.3 -289.13,-243.47 -76.09,-60.87 -258.69,-121.74l410.86 -228.25c0,0 -15.22,15.21 -15.22,30.43 213.04,-152.17 30.43,-76.08 228.26,-121.74 -30.44,-121.73 -91.31,-76.08 -15.22,-243.47 0,15.22 15.22,15.22 15.22,30.44l182.6 182.6c15.22,15.22 30.43,30.43 30.43,30.43 15.22,15.22 30.44,30.44 30.44,30.44 243.47,-106.52 304.34,-76.09 456.51,91.3 0,15.22 15.22,30.43 30.43,30.43 15.22,15.22 30.44,45.66 45.65,60.87 15.22,-60.87 45.65,-91.3 45.65,-91.3l106.52 30.43c0,15.22 30.44,30.44 45.65,30.44 15.22,0 30.44,15.22 45.66,30.43l-45.66 -304.34c121.74,-60.87 -60.86,-45.65 106.52,152.17 136.96,-121.73 243.48,-152.17 258.69,-304.34l30.44 106.52c91.3,167.39 -45.65,45.65 136.95,182.61 76.09,-243.48 -15.22,-91.31 121.74,-213.04 -167.39,304.34 -152.17,60.87 -228.26,441.29 380.43,-213.04 289.12,-167.39 334.78,-258.69 76.08,-121.73 0,106.52 45.65,-106.52 30.43,334.78 -91.31,106.52 152.17,304.34 45.65,-121.73 15.21,30.44 45.65,-152.17 -15.22,45.65 -258.69,319.56 -334.78,532.6 197.83,-15.22 289.13,-106.52 380.43,-289.13 -167.39,304.35 45.65,213.04 60.87,228.26 152.17,-76.09 60.87,45.65 121.73,-91.3 76.09,-197.82 15.22,-45.65 -15.21,-106.52 30.43,136.95 0,182.6 -45.65,273.91 0,15.21 -15.22,30.43 -15.22,45.65 -15.22,0 -15.22,15.21 -30.44,30.43 91.31,45.65 -45.65,76.09 243.48,-76.08l76.08 76.08c45.65,30.43 136.95,-106.52 60.87,258.69 258.69,-136.95 -60.87,136.95 91.3,-60.87l91.3 -136.95c30.44,426.07 -15.21,106.52 106.52,258.69 182.61,-304.34 136.96,-197.82 60.87,106.52 349.99,-182.61 -213.04,167.38 152.17,-106.52 15.22,-15.22 30.44,-15.22 45.65,-30.44 15.22,-15.21 30.44,-30.43 45.65,-45.65 30.44,0 45.65,-15.21 60.87,-30.43l0 304.34c213.04,-395.64 -30.43,-121.74 106.52,-410.86 0,15.22 -15.22,45.65 -15.22,45.65 30.44,121.74 15.22,91.3 60.87,182.6l121.74 -121.73c0,0 15.21,-15.22 15.21,-15.22 121.74,-136.95 136.96,-258.69 76.09,-486.94 -167.39,-30.44 -228.26,0 -334.77,121.73 -152.17,136.96 -136.96,106.52 -136.96,334.78 -60.87,-76.09 -30.43,-152.17 0,-273.91 -213.04,136.95 -15.21,15.22 -152.17,121.74l-167.38 91.3c0,-15.22 30.43,-136.95 30.43,-152.17 0,-228.26 0,-76.09 -30.43,-152.17l-45.66 152.17c-15.21,15.22 -15.21,30.43 -30.43,45.65 0,15.22 -15.22,30.43 -30.43,60.87l-106.52 -319.56c-30.44,289.12 15.21,167.39 -182.61,228.26 76.09,-228.26 91.3,-426.08 45.65,-684.77 -60.86,-30.43 76.09,-136.95 -228.25,-15.22 0,-106.52 -45.65,-167.38 -121.74,-258.69 -45.65,-60.86 -76.08,-91.3 -121.73,-121.73 0,0 -15.22,-15.22 -30.44,-15.22 -167.39,-121.74 -563.03,-441.29 -639.11,-593.46l-152.17 152.17c0,-15.22 -15.22,15.21 -30.44,30.43 -471.72,-91.3 -867.37,-60.87 -1339.09,0 -471.73,45.65 -715.2,167.39 -1110.85,243.47 -152.17,-365.2 -2054.29,-2799.93 -2404.29,-1613 -395.64,1369.53 426.08,3697.74 243.48,4093.38z"/>
   <path class="fil3 str0" d="M11972.62 15928.96l-30.43 0c167.39,45.65 91.3,0 152.17,136.95 15.22,15.22 45.65,167.39 45.65,182.6 30.44,136.96 45.65,258.69 60.87,395.65 593.46,3241.22 -1841.26,3089.05 -2632.54,2373.85 -91.31,-91.3 -136.96,-136.95 -182.61,-258.69 -182.6,-136.95 -228.25,-486.94 -289.12,-760.85 -45.65,-76.08 -30.44,-15.22 -76.09,-152.17l-15.21 -426.08 -182.61 91.31c-136.95,60.86 -45.65,-91.31 -182.6,182.6 152.17,-91.3 45.65,-60.87 0,-152.17l-167.39 182.61c-15.22,0 -15.22,15.21 -30.43,15.21 -76.09,91.3 -289.13,289.13 -213.04,426.08l-45.65 -319.56c0,-30.43 0,-30.43 -15.22,-45.65 0,410.86 0,334.77 -106.52,426.08l-167.39 -76.09 -45.65 136.95c0,0 -15.22,15.22 -15.22,15.22 -136.95,167.39 -60.86,30.44 -76.08,15.22 106.52,15.22 0,-30.44 152.17,30.43 213.04,91.3 243.47,197.82 258.69,426.08 76.08,60.87 0,-76.09 91.3,152.17 30.44,76.08 30.44,152.17 60.87,243.47 76.08,258.69 152.17,213.04 60.87,456.51 213.04,0 197.82,243.47 547.81,867.37 45.65,60.87 30.43,76.09 76.09,136.96 106.51,136.95 15.21,60.86 106.51,91.3l136.96 197.82c0,15.22 30.43,30.43 60.87,76.08 15.21,0 60.86,45.66 60.86,60.87 121.74,-60.87 76.09,-60.87 167.39,-91.3l182.61 -76.09c91.3,-30.43 15.21,0 76.08,0l319.56 -136.95 121.73 654.33c0,-243.47 -60.86,-684.76 45.65,-867.37l0 -471.72 699.99 -15.22c395.64,-30.44 608.68,-76.09 973.89,-197.82 289.12,-106.52 547.81,-319.56 836.93,-304.34 121.74,-426.08 304.34,-745.64 395.65,-1247.8 91.3,-563.03 30.43,-958.67 -45.66,-1506.48 15.22,0 30.44,-15.22 30.44,-15.22 15.22,0 30.43,-15.22 45.65,-15.22l243.47 -91.3 -319.56 -30.43 -289.12 -913.02 -106.52 -45.66 -776.07 243.48z"/>
   <path class="fil4 str1" d="M14376.91 11318.2l15.22 0 1521.7 15.22 -15.22 1065.19c-365.2,228.25 -669.54,319.56 -1004.32,593.46 -60.87,121.74 -76.08,121.74 -197.82,213.04 -167.39,213.04 -289.12,319.56 -441.29,593.46 -136.96,243.48 -243.48,517.38 -273.91,821.72 -60.87,867.37 136.95,1232.58 897.8,1399.97 0,-243.47 0,60.87 -152.17,-213.04 45.66,-136.95 76.09,-319.56 197.83,-410.86 -167.39,-152.17 -273.91,-228.25 -319.56,-517.38 0,-456.51 182.6,-897.8 410.86,-1141.27 152.17,-182.61 623.9,-639.12 882.58,-639.12 15.22,258.69 -15.21,669.55 91.31,867.37 91.3,-289.12 60.86,-258.69 -60.87,-502.16 106.52,15.22 228.25,60.87 228.25,60.87l213.04 167.39c0,0 15.22,15.21 30.44,30.43 60.86,76.08 0,45.65 121.73,106.52l-45.65 -958.67 228.26 -121.74 -228.26 -45.65c-30.43,-106.52 0,-15.22 -60.87,-15.22 -228.25,-15.22 -182.6,-121.73 -213.03,-197.82 -334.78,-699.98 -228.26,121.74 -228.26,-1156.49 15.22,106.52 197.82,182.6 426.08,273.9 0,106.52 0,213.04 0,319.56 0,15.22 0,136.95 0,152.17 45.65,197.82 15.21,106.52 76.08,182.61l15.22 -958.68 2739.06 -243.47 -15.22 -639.11c-410.85,30.43 -836.93,136.95 -1247.79,182.6 -471.73,60.87 -943.46,91.3 -1430.4,121.74l106.52 -1095.63 -654.33 -15.22 -60.87 1141.28 -1536.92 0 -15.22 563.03z"/>
   <path class="fil5 str2" d="M9522.68 16005.04l-213.03 -15.22 -45.66 213.04c136.96,15.22 106.52,-91.3 106.52,15.22 15.22,15.22 45.65,15.22 45.65,30.43 15.22,30.44 30.44,30.44 45.66,45.66l182.6 167.38c15.22,15.22 30.43,15.22 45.65,30.44l106.52 258.69c152.17,-76.09 -30.43,-76.09 228.26,-45.66l243.47 45.66c15.21,15.21 30.43,15.21 45.65,15.21 0,15.22 45.65,15.22 60.87,30.44 136.95,-30.44 15.21,-15.22 -60.87,-182.61 76.08,0 182.6,15.22 228.25,30.44 182.61,60.86 410.86,136.95 532.6,243.47 91.3,91.3 60.87,91.3 167.39,121.74 -45.65,167.38 -60.87,136.95 -167.39,258.68 136.95,182.61 182.6,258.69 380.43,365.21l-136.96 152.17c-15.21,15.22 -15.21,30.44 -30.43,30.44 0,15.21 -15.22,30.43 -15.22,30.43 0,15.22 -15.22,30.44 -15.22,30.44l-15.21 258.68c-15.22,0 -15.22,-15.21 -30.44,0l-76.08 30.44c-15.22,15.22 -30.44,15.22 -45.65,30.43 -15.22,0 -30.44,15.22 -45.65,15.22l-152.17 -136.95c45.65,167.38 -91.31,167.38 -228.26,213.03 0,0 -167.39,45.66 -167.39,45.66 -106.52,0 -136.95,15.21 -228.25,-76.09 167.39,60.87 60.87,45.65 -15.22,213.04 -197.82,-76.09 -152.17,-15.22 -197.82,-213.04 -15.22,319.56 -30.43,136.95 -60.87,182.6l-289.12 76.09c0,0 -213.04,167.39 -91.3,-30.43 -76.09,167.38 -45.65,213.03 -228.26,273.9 45.65,121.74 91.3,167.39 182.61,258.69 791.28,715.2 3226,867.37 2632.54,-2373.85 -15.22,-136.96 -30.43,-258.69 -60.87,-395.65 0,-15.21 -30.43,-167.38 -45.65,-182.6 -60.87,-136.95 15.22,-91.3 -152.17,-136.95 -806.5,167.38 -1597.79,106.52 -2419.51,76.08z"/>
   <path class="fil6 str1" d="M16705.12 12748.6l897.8 -45.65c-60.87,273.91 -669.55,1506.48 -1004.32,1689.09l-76.09 -563.03c-121.73,-60.87 -60.87,-30.44 -121.73,-106.52 -15.22,-15.22 -30.44,-30.43 -30.44,-30.43l-213.04 -167.39c0,0 -121.73,-45.65 -228.25,-60.87 121.73,243.47 152.17,213.04 60.87,502.16 -45.65,349.99 121.73,608.68 106.52,943.46 -136.96,136.95 -228.26,182.6 -380.43,273.9 -243.47,197.82 -456.51,182.61 -791.28,213.04 -121.74,91.3 -152.17,273.91 -197.83,410.86 152.17,273.91 152.17,-30.43 152.17,213.04l258.69 0c639.12,-76.09 730.42,-289.12 1110.85,-456.51l152.17 334.77c106.52,-30.43 532.59,-273.9 578.24,-304.34 -228.25,-776.07 -380.42,-258.69 152.17,-897.8 243.48,-273.91 867.37,-1156.5 882.59,-1506.49l-334.77 -197.82c15.21,-91.3 15.21,-243.47 45.65,-304.34 60.87,-182.6 121.73,-228.25 623.89,-304.34 0,-30.43 0,-182.6 76.09,-304.34l60.87 -304.34 -608.68 -106.52 -106.52 456.51c-486.95,15.22 -836.94,15.22 -1293.45,136.96 -60.87,-76.09 -30.43,15.21 -76.08,-182.61 0,-15.22 0,-136.95 0,-152.17 0,-106.52 0,-213.04 0,-319.56 -228.26,-91.3 -410.86,-167.38 -426.08,-273.9 0,1278.23 -106.52,456.51 228.26,1156.49 30.43,76.09 -15.22,182.6 213.03,197.82 60.87,0 30.44,-91.3 60.87,15.22l228.26 45.65z"/>
   <path class="fil7" d="M4455.42 19398.44c517.38,410.86 1004.32,776.07 1826.04,806.5 623.9,15.22 1826.04,-228.26 2099.95,-578.25 91.3,-243.47 15.21,-197.82 -60.87,-456.51 -30.43,-91.3 -30.43,-167.39 -60.87,-243.47 -91.3,-228.26 -15.22,-91.3 -91.3,-152.17 -608.68,136.95 -897.8,243.47 -1567.35,121.74 -563.03,-91.31 -867.37,-289.13 -1293.45,-410.86l-60.87 213.03 -791.28 0c-45.65,182.61 91.3,410.86 152.17,563.03 -15.22,0 -30.44,15.22 -30.44,15.22l-121.73 121.74z"/>
   <path class="fil8 str3" d="M12550.87 13661.62c-136.95,91.3 -152.17,76.09 -289.12,76.09 -502.16,319.55 -1826.04,502.16 -2571.68,486.94 -228.25,-15.22 -699.98,0 -897.8,-121.74 -654.33,182.61 -1689.09,-532.59 -2252.12,-654.33l-91.3 76.09c0,-15.22 -15.22,15.21 -30.44,15.21l-380.42 152.18c258.69,182.6 578.24,304.34 882.58,410.85 258.69,91.31 821.72,228.26 989.11,365.21 228.26,-45.65 410.86,30.44 623.9,76.09 319.56,30.43 623.9,76.08 943.45,91.3 349.99,15.22 745.64,-45.65 1065.19,30.43l1217.37 -197.82 1232.57 -349.99c76.09,-167.39 0,-60.87 426.08,-243.47 486.95,-228.26 1019.54,-699.98 1141.28,-715.2 167.38,-15.22 30.43,-45.65 136.95,45.65 121.74,-91.3 136.95,-91.3 197.82,-213.04l-15.22 -182.6 -334.77 -15.22c167.39,-152.17 349.99,-258.69 471.73,-410.86 -121.74,-136.95 -15.22,-91.3 -197.82,-76.08 -121.74,30.43 -349.99,289.12 -410.86,349.99 -289.13,289.12 -1536.92,913.02 -1856.48,1004.32z"/>
   <path class="fil5 str2" d="M5718.43 12961.64c-91.3,91.3 -91.3,-136.95 -60.87,121.73 197.82,76.09 45.65,0 106.52,106.52 197.82,15.22 532.6,182.61 654.33,349.99 15.22,0 30.44,-30.43 30.44,-15.21l91.3 -76.09c563.03,121.74 1597.79,836.94 2252.12,654.33 91.3,-136.95 121.73,-136.95 152.17,-334.77 30.43,-136.95 0,-365.21 45.65,-593.46 60.87,-60.87 121.73,-91.31 197.82,-182.61 45.65,-60.87 45.65,-76.08 91.3,-136.95l91.3 -213.04c-486.94,-136.95 -882.58,-182.6 -1430.4,-243.47 -852.15,-15.22 -1430.4,456.51 -2221.68,563.03z"/>
   <path class="fil5 str2" d="M9096.61 17998.47c60.87,273.91 106.52,623.9 289.12,760.85 182.61,-60.87 152.17,-106.52 228.26,-273.9 -121.74,197.82 91.3,30.43 91.3,30.43l289.12 -76.09c30.44,-45.65 45.65,136.96 60.87,-182.6 45.65,197.82 0,136.95 197.82,213.04 76.09,-167.39 182.61,-152.17 15.22,-213.04 91.3,91.3 121.73,76.09 228.25,76.09 0,0 167.39,-45.66 167.39,-45.66 136.95,-45.65 273.91,-45.65 228.26,-213.03l152.17 136.95c15.21,0 30.43,-15.22 45.65,-15.22 15.21,-15.21 30.43,-15.21 45.65,-30.43l76.08 -30.44c15.22,-15.21 15.22,0 30.44,0l15.21 -258.68c0,0 15.22,-15.22 15.22,-30.44 0,0 15.22,-15.22 15.22,-30.43 15.22,0 15.22,-15.22 30.43,-30.44l136.96 -152.17c-197.83,-106.52 -243.48,-182.6 -380.43,-365.21 106.52,-121.73 121.74,-91.3 167.39,-258.68 -106.52,-30.44 -76.09,-30.44 -167.39,-121.74 -121.74,-106.52 -349.99,-182.61 -532.6,-243.47 -45.65,-15.22 -152.17,-30.44 -228.25,-30.44 76.08,167.39 197.82,152.17 60.87,182.61 -15.22,-15.22 -60.87,-15.22 -60.87,-30.44 -15.22,0 -30.44,0 -45.65,-15.21l-243.47 -45.66c-258.69,-30.43 -76.09,-30.43 -228.26,45.66l-106.52 -258.69c-15.22,-15.22 -30.43,-15.22 -45.65,-30.44l-182.6 -167.38c-15.22,-15.22 -30.44,-15.22 -45.66,-45.66 0,-15.21 -30.43,-15.21 -45.65,-30.43 0,-106.52 30.44,0 -106.52,-15.22 -167.38,593.47 -197.82,1171.71 -167.38,1795.61z"/>
   <path class="fil5 str2" d="M9370.51 12642.08l-91.3 213.04c-45.65,60.87 -45.65,76.08 -91.3,136.95 -76.09,91.3 -136.95,121.74 -197.82,182.61 -45.65,228.25 -15.22,456.51 -45.65,593.46 -30.44,197.82 -60.87,197.82 -152.17,334.77 197.82,121.74 669.55,106.52 897.8,121.74 745.64,15.22 2069.52,-167.39 2571.68,-486.94 -304.34,-106.52 -441.3,-304.34 -456.51,-319.56l-106.52 -76.09c-197.82,-136.95 -76.09,30.44 -152.17,-152.17 -182.61,106.52 -213.04,258.69 -456.51,304.34 -273.91,30.44 -365.21,-106.52 -578.25,-167.38 -365.21,547.81 -1171.71,30.43 -973.89,-349.99 213.04,45.65 15.22,-76.09 197.82,167.38 197.82,258.69 349.99,289.13 654.33,106.52l45.66 -334.77c-45.66,-45.65 -30.44,-30.44 -91.31,-76.09l-60.87 -30.43c-760.85,-502.16 -136.95,-669.55 -30.43,-745.64l76.09 15.22 -30.44 -273.91c-456.51,121.74 -623.9,395.65 -791.28,852.16l-136.96 -15.22z"/>
   <path class="fil6 str1" d="M18942.02 13129.03c15.22,0 15.22,15.21 30.43,30.43l121.74 152.17c152.17,197.82 273.91,426.08 304.34,699.98 121.74,1202.15 -1049.98,1689.09 -2099.95,1886.91l304.34 578.25c1004.32,-121.74 1902.13,-669.55 2252.12,-1369.53 547.81,-1141.28 -152.17,-2404.29 -654.33,-2495.59 -167.39,76.08 -243.47,197.82 -349.99,304.34l91.3 213.04z"/>
   <path class="fil5 str2" d="M12733.47 11987.75c-91.3,76.08 -441.29,167.39 -593.46,167.39l-136.95 152.17c60.87,15.21 167.39,-30.44 182.6,304.34 15.22,334.77 60.87,410.86 -30.43,517.38 15.22,0 30.43,0 30.43,0 319.56,30.43 121.74,76.08 441.3,258.68 -45.66,136.96 -91.31,136.96 -76.09,273.91 319.56,-91.3 1567.35,-715.2 1856.48,-1004.32 60.87,-60.87 289.12,-319.56 410.86,-349.99 182.6,-15.22 76.08,-60.87 197.82,76.08 60.87,-45.65 91.3,-60.87 152.17,-106.52 -30.44,-152.17 15.21,-76.08 -60.87,-228.25 -45.65,-121.74 0,-45.65 -106.52,-121.74 -121.74,197.82 228.26,121.74 -273.91,121.74 -426.07,0 -836.93,-273.91 -1993.43,-60.87z"/>
   <path class="fil9 str4" d="M9522.68 15944.17l0 60.87c821.72,30.44 1613.01,91.3 2419.51,-76.08l30.43 0c-30.43,-167.39 45.66,-76.09 -121.73,-258.69l-45.65 -30.44c-15.22,0 -15.22,-15.21 -30.44,-15.21 -76.08,-91.31 15.22,30.43 30.44,-273.91 -532.6,91.3 -228.26,136.95 -228.26,136.95 0,-395.64 15.22,-152.17 -106.52,-304.34 -136.95,-167.38 -76.08,45.65 -273.9,-76.08l-91.31 -45.65c60.87,-289.13 -45.65,-365.21 -45.65,-365.21 -136.95,-45.65 -289.12,30.43 -517.38,-30.44 -319.55,-76.08 -715.2,-15.21 -1065.19,-30.43 -319.55,-15.22 -623.89,-60.87 -943.45,-91.3 152.17,91.3 -167.39,15.22 182.6,106.52 -121.73,380.42 273.91,517.38 745.64,639.11 456.51,136.96 897.8,167.39 1399.96,182.61 -167.39,121.73 -349.99,106.52 -578.25,167.38 -563.02,167.39 -410.85,152.17 -486.94,304.34l-273.91 0z"/>
   <path class="fil10" d="M13083.47 15274.63c-60.87,197.82 -136.96,304.34 -228.26,456.51l289.12 913.02 319.56 30.43c608.68,60.87 1643.44,-623.9 1643.44,-623.9 0,-15.21 15.22,-15.21 30.43,-30.43l-258.69 0c-760.85,-167.39 -958.67,-532.6 -897.8,-1399.97l-76.08 441.3 -821.72 213.04z"/>
   <path class="fil11 str5" d="M6707.54 17374.57c30.43,334.78 -152.17,426.08 -76.09,836.94 45.65,243.47 289.12,699.98 639.12,410.86l471.72 -547.81c0,-30.44 15.22,-30.44 30.44,-45.65 30.43,-136.96 45.65,-136.96 136.95,-213.04 -76.09,-60.87 -121.74,60.87 -106.52,-502.16 0,-121.74 15.22,-304.34 -15.22,-410.86 -60.86,-273.91 15.22,-15.22 -76.08,-167.39l-197.82 -289.12c-45.65,-60.87 -15.22,76.08 -91.3,-136.96l-91.31 76.09c-91.3,182.6 -182.6,289.12 -289.12,486.94 -45.65,91.3 -76.09,152.17 -121.74,243.47 -106.52,258.69 -15.21,213.04 -213.03,258.69z"/>
   <path class="fil1 str0" d="M5307.57 18485.42c426.08,121.73 730.42,319.55 1293.45,410.86 669.55,121.73 958.67,15.21 1567.35,-121.74 -15.22,-228.26 -45.65,-334.78 -258.69,-426.08 -152.17,-60.87 -45.65,-15.21 -152.17,-30.43 15.22,15.22 -60.87,152.17 76.08,-15.22 0,0 15.22,-15.22 15.22,-15.22l45.65 -136.95 -121.73 -121.73c-15.22,15.21 -30.44,15.21 -30.44,45.65l-471.72 547.81c-350,289.12 -593.47,-167.39 -639.12,-410.86 -76.08,-410.86 106.52,-502.16 76.09,-836.94 -45.66,-121.73 -167.39,-167.38 -319.56,-182.6 -289.13,106.52 15.22,76.08 -167.39,334.77 -76.08,121.74 15.22,-15.21 -76.08,76.09 -91.31,121.74 15.21,-60.87 -76.09,106.52 -60.87,106.52 15.22,30.43 -45.65,167.39 -76.09,30.43 -228.26,76.08 -273.91,106.51 -76.08,91.31 -60.86,152.17 -121.73,258.69 -121.74,213.04 -197.82,-45.65 -319.56,243.48z"/>
   <path class="fil5 str2" d="M3466.31 16689.81c60.87,15.21 243.47,395.64 304.34,471.73 136.95,197.82 1049.98,1126.05 1202.15,1171.71 152.17,45.65 45.65,76.08 182.6,-30.44 -76.09,-136.95 -152.17,-228.25 -213.04,-380.42 273.91,-152.17 547.81,-91.31 760.85,-334.78 -30.43,-380.42 -456.51,-304.34 -304.34,-654.33l365.21 0c-136.95,-76.08 -182.6,-60.87 -319.56,-60.87 -1445.61,76.09 -1582.57,-395.64 -1917.34,-441.29l-60.87 258.69z"/>
   <path class="fil12" d="M10253.1 12063.83c182.61,15.22 258.69,0 441.29,0 867.37,45.66 -45.65,806.51 -45.65,806.51 0,273.9 136.96,471.72 441.3,395.64 349.99,-76.09 182.6,-349.99 441.29,-441.29 106.52,152.17 30.43,152.17 15.22,365.2 76.08,182.61 -45.65,15.22 152.17,152.17l106.52 76.09c15.21,15.22 152.17,213.04 456.51,319.56 136.95,0 152.17,15.21 289.12,-76.09 -15.22,-136.95 30.43,-136.95 76.09,-273.91 -319.56,-182.6 -121.74,-228.25 -441.3,-258.68 0,0 -15.21,0 -30.43,0 91.3,-106.52 45.65,-182.61 30.43,-517.38 -15.21,-334.78 -121.73,-289.13 -182.6,-304.34 -213.04,0 -213.04,76.08 -426.08,136.95 -258.69,-197.82 -639.11,-852.15 -1278.23,-639.12l30.44 273.91 -76.09 -15.22z"/>
   <path class="fil13" d="M4455.42 19398.44l121.73 -121.74c0,0 15.22,-15.22 30.44,-15.22 -60.87,-152.17 -197.82,-380.42 -152.17,-563.03l791.28 0 60.87 -213.03c-60.87,-60.87 0,15.21 -91.3,-91.31 -30.44,-45.65 -30.44,-60.86 -60.87,-91.3 -136.95,106.52 -30.43,76.09 -182.6,30.44 -152.17,-45.66 -1065.2,-973.89 -1202.15,-1171.71 -60.87,-76.09 -243.47,-456.52 -304.34,-471.73 -76.08,486.94 45.65,1141.27 228.26,1552.13 197.82,441.3 304.34,517.38 532.59,867.37 30.44,45.65 45.65,76.09 91.3,121.74l136.96 167.39z"/>
   <path class="fil2" d="M8031.42 17694.13l30.43 532.6c106.52,-91.31 106.52,-15.22 106.52,-426.08 15.22,15.22 15.22,15.22 15.22,45.65l45.65 319.56c-76.09,-136.95 136.95,-334.78 213.04,-426.08 15.21,0 15.21,-15.21 30.43,-15.21l167.39 -182.61c45.65,91.3 152.17,60.87 0,152.17 136.95,-273.91 45.65,-121.74 182.6,-182.6l182.61 -91.31 15.21 426.08c45.65,136.95 30.44,76.09 76.09,152.17 -30.44,-623.9 0,-1202.14 167.38,-1795.61l45.66 -213.04 213.03 15.22 0 -60.87c-426.07,76.09 -639.11,-136.95 -1004.32,-121.73l45.65 -15.22c-60.87,319.56 -213.04,654.33 -289.12,958.67l-136.95 760.85c-45.66,106.52 -30.44,106.52 -106.52,167.39z"/>
   <path class="fil12" d="M12398.7 7879.15l365.21 -15.21c-15.22,273.9 -60.87,349.99 -167.39,547.81l136.95 45.65c76.09,30.43 136.96,30.43 213.04,45.65 -45.65,197.82 -152.17,304.34 -228.25,426.08 15.21,15.22 30.43,15.22 30.43,30.43l273.91 289.13c-91.3,106.51 -60.87,45.65 -152.17,136.95l-136.96 136.95c228.26,197.82 395.65,441.3 623.9,623.9 45.65,-745.63 45.65,-2510.81 -365.21,-2982.54 -304.34,45.66 -486.94,410.86 -593.46,715.2z"/>
   <path class="fil14" d="M12992.16 14118.13c136.96,395.64 197.83,684.77 91.31,1156.5l821.72 -213.04 76.08 -441.3c30.43,-304.34 136.95,-578.24 273.91,-821.72 152.17,-273.9 273.9,-380.42 441.29,-593.46 -106.52,-91.3 30.43,-60.87 -136.95,-45.65 -121.74,15.22 -654.33,486.94 -1141.28,715.2 -426.08,182.6 -349.99,76.08 -426.08,243.47z"/>
   <path class="fil1 str0" d="M10945.47 20052.77l30.44 897.8 0 563.03 213.04 15.22c-213.04,45.65 -136.96,-349.99 -121.74,-593.46 76.08,-45.66 121.74,-30.44 258.69,-197.83l745.63 136.96c0,-304.34 -30.43,-15.22 91.3,-152.17 182.61,-121.74 456.51,-958.67 593.47,-1171.71 -289.13,-15.22 -547.81,197.82 -836.94,304.34 -365.21,121.73 -578.24,167.38 -973.89,197.82z"/>
   <path class="fil15" d="M11759.59 14468.12c30.43,273.91 -15.22,30.44 30.43,152.17 30.43,121.74 15.22,91.31 60.87,167.39 76.08,91.3 106.52,76.09 167.39,228.26 -121.74,228.25 -121.74,76.08 -197.83,319.55 182.61,-15.21 -15.21,0 273.91,-228.25l228.26 -182.61c-15.22,-15.21 -45.66,0 -121.74,91.31 -243.47,273.9 45.65,0 -91.3,106.51 15.21,15.22 45.65,15.22 45.65,45.66 30.43,76.08 167.39,45.65 365.21,304.34 15.21,15.21 15.21,30.43 30.43,30.43l30.43 60.87c152.17,167.39 -60.86,-45.65 167.39,121.73l106.52 45.66c91.3,-152.17 167.39,-258.69 228.26,-456.51 106.52,-471.73 45.65,-760.86 -91.31,-1156.5l-1232.57 349.99z"/>
   <path class="fil16" d="M7422.74 10131.27c-76.09,-213.04 -106.52,-60.87 -289.13,-258.69 60.87,-243.47 45.65,-197.82 228.26,-365.2 -136.96,-136.96 -243.47,-136.96 -289.13,-365.21 106.52,-152.17 30.44,-106.52 243.48,-152.17 -106.52,-258.69 -334.78,-471.73 136.95,-593.47 -167.39,-289.12 -304.34,-563.03 -715.2,-578.24 -213.04,760.85 76.08,2176.03 258.69,2967.31 91.3,-91.3 365.21,-441.29 426.08,-654.33z"/>
   <path class="fil17" d="M11546.55 13189.89c15.21,-213.03 91.3,-213.03 -15.22,-365.2 -258.69,91.3 -91.3,365.2 -441.29,441.29 -304.34,76.08 -441.3,-121.74 -441.3,-395.64 0,0 913.02,-760.85 45.65,-806.51 -182.6,0 -258.68,15.22 -441.29,0 -106.52,76.09 -730.42,243.48 30.43,745.64l60.87 30.43c60.87,45.65 45.65,30.44 91.31,76.09l-45.66 334.77c-304.34,182.61 -456.51,152.17 -654.33,-106.52 -182.6,-243.47 15.22,-121.73 -197.82,-167.38 -197.82,380.42 608.68,897.8 973.89,349.99 213.04,60.86 304.34,197.82 578.25,167.38 243.47,-45.65 273.9,-197.82 456.51,-304.34z"/>
   <path class="fil11 str5" d="M7422.74 16309.38c76.08,213.04 45.65,76.09 91.3,136.96l197.82 289.12c91.3,152.17 15.22,-106.52 76.08,167.39 30.44,106.52 15.22,289.12 15.22,410.86 -15.22,563.03 30.43,441.29 106.52,502.16 91.3,-106.52 15.22,-45.65 121.74,-121.74 76.08,-60.87 60.86,-60.87 106.52,-167.39l136.95 -760.85c76.08,-304.34 228.25,-639.11 289.12,-958.67l-45.65 15.22 -502.16 -258.69c-182.61,152.17 -486.95,532.59 -593.46,745.63z"/>
   <path class="fil1 str0" d="M10973.95 21513.6c76.09,197.82 349.99,106.52 776.07,106.52 882.59,0 973.89,60.87 684.77,-654.33 -121.74,-30.43 -258.69,-30.43 -273.91,-243.47 -121.74,136.95 -91.3,-152.17 -91.3,152.17l-745.64 -136.96c-136.95,167.39 -182.6,152.17 -258.69,197.83 -15.21,243.47 -91.3,639.11 121.74,593.46l-213.04 -15.22z"/>
   <path class="fil1 str0" d="M8827.5 20981.02c-410.88,791.26 -91.31,654.34 1095.62,654.34 143.54,0 217.96,5.13 258.97,-6.7l40.21 -31.73c16.17,-31.88 17.73,-88.8 35.58,-189.84l-121.75 -654.34 -319.54 136.96c-60.87,0 15.22,-30.43 -76.09,0l-182.61 76.09c-91.27,30.44 -45.66,30.44 -167.36,91.31 0,-15.22 -45.66,-60.87 -60.87,-60.87 -30.44,-45.66 -60.88,-60.87 -60.88,-76.09l-136.96 -197.84c-30.43,258.71 45.66,76.09 -121.74,197.84 -76.09,45.65 -152.14,45.65 -182.58,60.87z"/>
   <path class="fil13 str2" d="M7422.74 10131.27c273.9,-182.6 426.07,-502.16 730.41,-593.46 -106.52,-334.78 -547.81,-958.67 -699.98,-1141.28 -471.73,121.74 -243.47,334.78 -136.95,593.47 -213.04,45.65 -136.96,0 -243.48,152.17 45.66,228.25 152.17,228.25 289.13,365.21 -182.61,167.38 -167.39,121.73 -228.26,365.2 182.61,197.82 213.04,45.65 289.13,258.69z"/>
   <path class="fil9 str4" d="M10542.22 14665.94c228.26,60.87 380.43,-15.21 517.38,30.44 0,0 106.52,76.08 45.65,365.21l91.31 45.65c197.82,121.73 136.95,-91.3 273.9,76.08 121.74,152.17 106.52,-91.3 106.52,304.34 0,0 -304.34,-45.65 228.26,-136.95 -15.22,304.34 -106.52,182.6 -30.44,273.91 15.22,0 15.22,15.21 30.44,15.21l45.65 30.44c167.39,182.6 91.3,91.3 121.73,258.69l776.07 -243.48c-228.25,-167.38 -15.22,45.66 -167.39,-121.73l-30.43 -60.87c-15.22,0 -15.22,-15.22 -30.43,-30.43 -197.82,-258.69 -334.78,-228.26 -365.21,-304.34 0,-30.44 -30.44,-30.44 -45.65,-45.66 136.95,-106.51 -152.17,167.39 91.3,-106.51 76.08,-91.31 106.52,-106.52 121.74,-91.31l-228.26 182.61c-289.12,228.25 -91.3,213.04 -273.91,228.25 76.09,-243.47 76.09,-91.3 197.83,-319.55 -60.87,-152.17 -91.31,-136.96 -167.39,-228.26 -45.65,-76.08 -30.44,-45.65 -60.87,-167.39 -45.65,-121.73 0,121.74 -30.43,-152.17l-1217.37 197.82z"/>
   <path class="fil13 str2" d="M12733.47 9522.59l136.96 -136.95c91.3,-91.3 60.87,-30.44 152.17,-136.95l-273.91 -289.13c0,-15.21 -15.22,-15.21 -30.43,-30.43 76.08,-121.74 182.6,-228.26 228.25,-426.08 -76.08,-15.22 -136.95,-15.22 -213.04,-45.65l-136.95 -45.65c106.52,-197.82 152.17,-273.91 167.39,-547.81l-365.21 15.21c-197.82,304.34 -349.99,806.51 -441.29,1202.15l776.06 441.29z"/>
   <path class="fil1 str0" d="M5155.4 18302.81c30.43,30.44 30.43,45.65 60.87,91.3 91.3,106.52 30.43,30.44 91.3,91.31 121.74,-289.13 197.82,-30.44 319.56,-243.48 60.87,-106.52 45.65,-167.38 121.73,-258.69 45.65,-30.43 197.82,-76.08 273.91,-106.51 60.87,-136.96 -15.22,-60.87 45.65,-167.39 91.3,-167.39 -15.22,15.22 76.09,-106.52 91.3,-91.3 0,45.65 76.08,-76.09 182.61,-258.69 -121.74,-228.25 167.39,-334.77 -152.17,-167.39 -380.43,-213.04 -623.9,-258.69l-365.21 0c-152.17,349.99 273.91,273.91 304.34,654.33 -213.04,243.47 -486.94,182.61 -760.85,334.78 60.87,152.17 136.95,243.47 213.04,380.42z"/>
   <path class="fil18 str1" d="M18013.78 13189.89c45.65,-30.43 30.43,-30.43 76.09,-91.3l152.17 -289.12c349.99,76.08 456.51,228.25 699.98,319.56l-91.3 -213.04c106.52,-106.52 182.6,-228.26 349.99,-304.34l-197.82 -152.17c-60.87,-30.44 -167.39,-60.87 -213.04,-91.31 -258.69,-91.3 -349.99,-45.65 -365.21,-289.12 -76.09,121.74 -76.09,273.91 -76.09,304.34 -502.16,76.09 -563.02,121.74 -623.89,304.34 -30.44,60.87 -30.44,213.04 -45.65,304.34l334.77 197.82z"/>
   <path class="fil1 str0" d="M11516.11 11911.66c60.87,30.44 30.44,15.22 121.74,30.44 563.03,76.08 243.47,136.95 502.16,213.04 152.17,0 502.16,-91.31 593.46,-167.39 -30.43,-136.95 -15.21,-197.82 -15.21,-213.04 -304.34,-136.95 -213.04,-426.08 -608.68,-395.64 -334.78,30.43 -349.99,228.25 -441.3,532.59l-152.17 0z"/>
   <path class="fil1 str0" d="M14605.17 14878.98c45.65,289.13 152.17,365.21 319.56,517.38 334.77,-30.43 547.81,-15.22 791.28,-213.04l-76.08 -91.3c-106.52,-152.17 -76.09,-273.91 -350,-319.56 -258.69,-60.86 -486.94,45.65 -684.76,106.52z"/>
   <path class="fil19" d="M11516.11 11911.66l152.17 0c91.31,-304.34 106.52,-502.16 441.3,-532.59 395.64,-30.44 304.34,258.69 608.68,395.64 121.73,-365.21 -228.26,-684.77 -669.55,-639.11 -334.78,30.43 -776.07,426.07 -532.6,776.06z"/>
   <path class="fil19" d="M8092.28 11850.8l15.22 289.12c410.86,-15.22 121.74,-471.73 639.12,-471.73 152.17,15.22 258.69,76.09 334.77,182.61 136.95,182.6 45.65,197.82 243.47,258.69 213.04,-182.61 60.87,-350 -106.52,-502.17 -213.03,-197.82 -365.2,-182.6 -684.76,-152.17 -91.3,60.87 -182.61,91.31 -258.69,152.17 -76.09,76.09 -152.17,228.26 -182.61,243.48z"/>
   <path class="fil20 str6" d="M7424.28 16479.05l94.74 -80.03c110.54,-222.33 426.34,-620.68 615.82,-780.74l521.08 262.49c378.96,-20.11 600.02,198.43 1042.15,114.44l284.22 -3.24c78.95,-158.81 -78.95,-141.22 505.29,-321.57 236.85,-65.86 426.33,-52.23 600.02,-180.53 -521.07,-9.85 -978.99,-36.21 -1452.69,-172.92 -489.5,-120.74 -900.04,-258.17 -773.72,-654.37 -363.18,-90.6 -31.58,-15.43 -189.48,-108.37 -221.07,-44.85 -410.55,-121.64 -647.4,-71.56l-47.37 505.82c-584.24,196.14 -615.82,417.57 -1373.75,426.21 -947.41,10.8 -1168.47,-381.43 -1389.53,-221.01 142.11,235.23 236.85,44.67 363.17,264.29 -252.64,81.83 -142.11,-93.12 -442.12,-10.75 -15.79,0.18 -31.58,0.36 -47.37,16.33 189.48,187.32 300.01,43.95 347.38,248.69 -173.69,128.3 -126.32,-61.73 -426.33,-10.93 94.74,267.35 236.85,28.88 331.59,296.23 -221.06,34.1 -94.74,-14.71 -221.06,-13.27l-189.48 17.95c0,15.79 15.79,15.61 15.79,31.4l300.01 186.06c-94.74,64.24 -15.79,31.76 -189.48,33.74l-78.95 0.9c-142.11,17.41 -15.79,-31.4 -110.53,32.84 47.37,78.41 410.54,263.75 505.28,310.04 157.9,61.36 442.13,121.28 647.4,134.73 615.81,56.14 931.62,-89.57 1405.32,-252.87z"/>
  </g>
 </g>
</svg>
